<svg width="791" height="881" viewBox="0 0 791 881" fill="none" xmlns="http://www.w3.org/2000/svg">
<path d="M324.934 609.783C332.445 656.236 345.713 696.987 363.182 731.868C402.82 739.49 442.041 740.658 479.871 733.537C423.571 679.017 377.424 600.909 354.419 522.801C256.673 190.925 122.765 242.023 44.7126 320.104C18.3984 346.418 7.35531 381.188 8.49577 418.629C14.3928 401.578 23.8504 385.973 37.2578 372.537C115.31 294.457 265.129 239.965 324.934 609.783Z" fill="#666666"/>
<path d="M685.101 556.626C691.971 538.879 697.952 519.741 702.987 499.658Z" fill="#999999"/>
<path d="M371.527 156.933C383.071 106.474 411.137 62.5801 457.006 37.2951C744.043 -121.035 815.754 272.26 733.25 529.922L713.668 581.827C696.672 620.353 675.643 653.955 650.886 679.602C610.636 721.27 564.711 748.67 515.699 763.885C459.872 782.494 391.221 778.044 391.221 778.044C301.235 772.564 199.26 756.625 117.175 700.074C25.1304 636.653 -19.9321 500.771 8.46838 418.629C9.49758 452.342 290.776 868.474 569.968 685.332C809.578 528.142 583.793 -20.535 452.222 58.2686C408.328 84.555 382.653 119.214 373.14 156.683" fill="#999999"/>
<path d="M745.684 753.788C673.695 828.697 589.078 817.598 515.699 763.885C475.782 776.291 433.808 780.63 391.221 778.044C480.539 900.491 632.583 916.152 738.201 806.249C772.332 770.728 784.738 734.928 781.511 700.047C774.335 718.127 762.652 736.124 745.684 753.788Z" fill="#666666"/>
<path d="M373.196 156.627C352.083 239.853 410.636 337.127 526.241 388.281C588.716 415.931 653.307 454.762 702.987 499.658L733.25 529.922C780.594 582.829 804.599 641.91 781.511 700.047C777.672 658.572 751.692 618.461 713.667 581.799L685.101 556.626C635.198 516.181 572.36 481.049 512.305 454.484C397.952 403.859 346.742 265.25 371.527 156.961L373.196 156.627Z" fill="black"/>
</svg>
