<svg width="3589" height="880" viewBox="0 0 3589 880" fill="none" xmlns="http://www.w3.org/2000/svg">
<path d="M1097.59 598.536C1069.59 598.536 1045.07 592.381 1024.03 580.071C1002.98 567.562 986.502 549.495 974.589 525.868C962.875 502.042 957.018 473.253 957.018 439.5C957.018 406.144 962.875 377.553 974.589 353.727C986.502 329.902 1002.98 311.635 1024.03 298.928C1045.07 286.221 1069.59 279.868 1097.59 279.868C1125.58 279.868 1150.1 286.122 1171.15 298.63C1192.4 310.94 1208.87 329.008 1220.59 352.834C1232.3 376.461 1238.16 405.151 1238.16 438.904C1238.16 472.26 1232.3 500.851 1220.59 524.676C1208.87 548.502 1192.4 566.768 1171.15 579.475C1150.1 592.182 1125.58 598.536 1097.59 598.536ZM1097.59 561.01C1128.36 561.01 1152.19 550.19 1169.07 528.548C1186.14 506.906 1194.68 477.025 1194.68 438.904C1194.68 400.981 1186.44 371.299 1169.96 349.856C1153.68 328.214 1129.56 317.393 1097.59 317.393C1065.82 317.393 1041.7 327.817 1025.22 348.664C1008.74 369.512 1000.5 399.79 1000.5 439.5C1000.5 477.224 1008.74 506.906 1025.22 528.548C1041.7 550.19 1065.82 561.01 1097.59 561.01Z" fill="black"/>
<path d="M1334.78 712.303V287.015H1376.47V314.415C1386.4 305.48 1397.72 297.538 1410.43 290.589C1423.13 283.441 1440.21 279.868 1461.65 279.868C1489.25 279.868 1512.88 286.519 1532.53 299.822C1552.39 312.926 1567.58 331.391 1578.1 355.216C1588.62 379.042 1593.88 406.938 1593.88 438.904C1593.88 472.855 1588.32 501.744 1577.21 525.57C1566.09 549.197 1550.7 567.265 1531.04 579.773C1511.59 592.282 1489.25 598.536 1464.03 598.536C1440.61 598.536 1422.34 594.763 1409.24 587.219C1396.13 579.475 1385.21 570.541 1376.47 560.415V691.456L1334.78 712.303ZM1459.27 561.01C1488.26 561.01 1510.69 550.487 1526.58 529.441C1542.46 508.395 1550.4 478.216 1550.4 438.904C1550.4 401.974 1542.16 372.49 1525.68 350.451C1509.4 328.412 1486.47 317.393 1456.89 317.393C1439.61 317.393 1423.93 321.563 1409.83 329.902C1395.93 338.042 1384.81 349.558 1376.47 364.449V513.955C1387 527.257 1398.81 538.475 1411.92 547.608C1425.02 556.543 1440.8 561.01 1459.27 561.01Z" fill="black"/>
<path d="M1825.71 598.536C1796.92 598.536 1772.3 591.19 1751.85 576.497C1731.6 561.805 1716.12 542.347 1705.39 518.124C1694.67 493.901 1689.31 467.495 1689.31 438.904C1689.31 405.151 1694.97 376.461 1706.29 352.834C1717.61 329.008 1733.49 310.94 1753.94 298.63C1774.39 286.122 1798.31 279.868 1825.71 279.868C1848.15 279.868 1868.8 285.03 1887.66 295.354C1906.52 305.679 1921.61 321.662 1932.93 343.303C1944.45 364.945 1950.2 392.841 1950.2 426.991C1950.2 430.168 1950.1 434.238 1949.91 439.202C1949.91 443.967 1949.61 449.625 1949.01 456.178H1722.67V418.652H1907.91C1907.91 391.451 1903.45 370.604 1894.51 356.11C1885.58 341.417 1874.66 331.291 1861.75 325.732C1849.04 320.173 1837.03 317.393 1825.71 317.393C1793.95 317.393 1770.42 327.519 1755.13 347.771C1739.84 368.023 1732.2 395.025 1732.2 428.778C1732.2 469.48 1740.64 501.546 1757.51 524.974C1774.39 548.204 1797.72 559.819 1827.5 559.819C1839.22 559.819 1851.23 558.032 1863.54 554.458C1875.85 550.686 1888.06 544.531 1900.17 535.993L1922.8 563.989C1910.3 573.717 1895.6 581.957 1878.73 588.708C1861.85 595.26 1844.18 598.536 1825.71 598.536Z" fill="black"/>
<path d="M2068.86 591.388V287.015H2110.56V338.836L2103.41 331.688C2109.76 319.974 2117.31 310.345 2126.04 302.8C2134.78 295.057 2144.71 289.299 2155.83 285.526C2166.94 281.754 2179.25 279.868 2192.75 279.868C2218.37 279.868 2239.51 284.831 2256.19 294.759C2272.87 304.487 2285.18 319.875 2293.12 340.921C2301.26 361.967 2305.33 389.267 2305.33 422.822V591.388H2263.64V405.548C2263.64 373.383 2256.49 350.65 2242.19 337.347C2228.1 324.044 2210.43 317.393 2189.18 317.393C2173.69 317.393 2159.99 320.073 2148.08 325.434C2136.37 330.795 2127.14 339.829 2120.38 352.536C2113.83 365.044 2110.56 382.318 2110.56 404.357V591.388H2068.86Z" fill="black"/>
<path d="M2546.1 591.388V324.541H2482.96V287.015H2546.1V241.151C2546.1 227.054 2548.18 215.34 2552.35 206.008C2556.72 196.478 2562.67 188.933 2570.22 183.374C2577.76 177.616 2586.4 173.546 2596.13 171.163C2605.86 168.582 2616.18 167.291 2627.1 167.291C2641.2 167.291 2653.31 168.781 2663.44 171.759C2673.76 174.737 2682.9 178.013 2690.84 181.587V219.112C2682.9 215.141 2674.26 211.964 2664.93 209.582C2655.59 207.199 2644.38 206.008 2631.27 206.008C2617.18 206.008 2607.05 207.894 2600.89 211.667C2594.94 215.439 2591.27 220.502 2589.88 226.856C2588.49 233.209 2587.79 240.158 2587.79 247.703V287.015H2668.8V324.541H2587.79V591.388H2546.1ZM2482.96 591.388V553.863H2668.8V591.388H2482.96Z" fill="black"/>
<path d="M2861.32 598.536C2833.32 598.536 2808.8 592.381 2787.75 580.071C2766.71 567.562 2750.23 549.495 2738.32 525.868C2726.6 502.042 2720.74 473.253 2720.74 439.5C2720.74 406.144 2726.6 377.553 2738.32 353.727C2750.23 329.902 2766.71 311.635 2787.75 298.928C2808.8 286.221 2833.32 279.868 2861.32 279.868C2889.31 279.868 2913.83 286.122 2934.88 298.63C2956.12 310.94 2972.6 329.008 2984.32 352.834C2996.03 376.461 3001.89 405.151 3001.89 438.904C3001.89 472.26 2996.03 500.851 2984.32 524.676C2972.6 548.502 2956.12 566.768 2934.88 579.475C2913.83 592.182 2889.31 598.536 2861.32 598.536ZM2861.32 561.01C2892.09 561.01 2915.92 550.19 2932.79 528.548C2949.87 506.906 2958.41 477.025 2958.41 438.904C2958.41 400.981 2950.17 371.299 2933.69 349.856C2917.41 328.214 2893.28 317.393 2861.32 317.393C2829.55 317.393 2805.42 327.817 2788.95 348.664C2772.47 369.512 2764.23 399.79 2764.23 439.5C2764.23 477.224 2772.47 506.906 2788.95 528.548C2805.42 550.19 2829.55 561.01 2861.32 561.01Z" fill="black"/>
<path d="M3141.99 591.388V181.587L3183.68 161.335V591.388H3141.99ZM3058 591.388V553.863H3267.67V591.388H3058ZM3067.53 198.86L3049.07 161.335H3183.68L3161.64 198.86H3067.53Z" fill="black"/>
<path d="M3461.38 598.536C3434.57 598.536 3411.44 591.984 3391.99 578.88C3372.53 565.776 3357.54 547.311 3347.02 523.485C3336.69 499.461 3331.53 471.267 3331.53 438.904C3331.53 405.548 3336.79 377.056 3347.31 353.429C3357.84 329.604 3372.83 311.437 3392.28 298.928C3411.74 286.221 3434.77 279.868 3461.38 279.868C3482.23 279.868 3499.3 282.747 3512.6 288.504C3526.1 294.262 3537.42 300.914 3546.55 308.458V182.182L3588.25 161.335V591.388H3546.55V565.18C3537.42 574.313 3526.2 582.156 3512.9 588.708C3499.8 595.26 3482.62 598.536 3461.38 598.536ZM3466.14 561.01C3483.42 561.01 3499 556.841 3512.9 548.502C3527 540.163 3538.22 528.449 3546.55 513.359V361.471C3540.4 351.345 3530.77 341.517 3517.67 331.986C3504.76 322.257 3487.59 317.393 3466.14 317.393C3436.76 317.393 3414.22 327.916 3398.54 348.962C3382.85 369.81 3375.01 399.79 3375.01 438.904C3375.01 461.538 3378.68 482.088 3386.03 500.553C3393.57 519.018 3404.1 533.71 3417.6 544.63C3431.3 555.55 3447.48 561.01 3466.14 561.01Z" fill="black"/>
<path d="M324.934 609.155C332.445 655.608 345.713 696.359 363.182 731.241C402.82 738.862 442.041 740.031 479.871 732.91C423.571 678.39 377.424 600.281 354.419 522.173C256.673 190.297 122.765 241.395 44.7126 319.476C18.3984 345.79 7.35531 380.56 8.49577 418.001C14.3928 400.95 23.8504 385.345 37.2578 371.909C115.31 293.829 265.129 239.337 324.934 609.155Z" fill="#666666"/>
<path d="M685.101 555.998C691.971 538.251 697.952 519.113 702.987 499.03Z" fill="#999999"/>
<path d="M371.527 156.305C383.071 105.846 411.137 61.9522 457.006 36.6672C744.043 -121.663 815.754 271.632 733.25 529.294L713.668 581.199C696.672 619.725 675.643 653.327 650.886 678.974C610.636 720.643 564.711 748.042 515.699 763.257C459.872 781.866 391.221 777.416 391.221 777.416C301.235 771.936 199.26 755.997 117.175 699.446C25.1304 636.025 -19.9321 500.143 8.46838 418.001C9.49758 451.714 290.776 867.847 569.968 684.704C809.578 527.514 583.793 -21.1629 452.222 57.6407C408.328 83.9271 382.653 118.586 373.14 156.055" fill="#999999"/>
<path d="M745.684 753.16C673.695 828.069 589.078 816.97 515.699 763.257C475.782 775.663 433.808 780.003 391.221 777.416C480.539 899.863 632.583 915.524 738.201 805.621C772.332 770.1 784.738 734.3 781.511 699.419C774.335 717.499 762.652 735.496 745.684 753.16Z" fill="#666666"/>
<path d="M373.196 155.999C352.083 239.226 410.636 336.499 526.241 387.653C588.716 415.303 653.307 454.134 702.987 499.03L733.25 529.294C780.594 582.201 804.599 641.283 781.511 699.419C777.672 657.945 751.692 617.833 713.667 581.172L685.101 555.998C635.198 515.553 572.36 480.421 512.305 453.856C397.952 403.231 346.742 264.622 371.527 156.333L373.196 155.999Z" fill="black"/>
</svg>
