<svg width="791" height="881" viewBox="0 0 791 881" fill="none" xmlns="http://www.w3.org/2000/svg">
<path d="M324.934 609.783C332.444 656.236 345.713 696.987 363.181 731.868C402.82 739.49 442.041 740.658 479.871 733.537C423.571 679.017 377.423 600.909 354.419 522.801C256.673 190.925 122.765 242.023 44.7124 320.104C18.3982 346.418 7.35512 381.188 8.49559 418.629C14.3927 401.578 23.8502 385.973 37.2577 372.537C115.31 294.457 265.129 239.965 324.934 609.783Z" fill="#046699"/>
<path d="M685.101 556.626C691.971 538.879 697.952 519.741 702.987 499.658Z" fill="#06A9FF"/>
<path d="M371.527 156.933C383.07 106.474 411.137 62.5801 457.006 37.2951C744.043 -121.035 815.753 272.26 733.25 529.922L713.667 581.827C696.672 620.353 675.642 653.955 650.886 679.602C610.636 721.27 564.711 748.67 515.699 763.885C459.871 782.494 391.221 778.044 391.221 778.044C301.235 772.564 199.26 756.625 117.174 700.074C25.1302 636.653 -19.9323 500.771 8.46819 418.629C9.4974 452.342 290.776 868.474 569.968 685.332C809.578 528.142 583.793 -20.535 452.222 58.2686C408.328 84.555 382.653 119.214 373.14 156.683" fill="#06A9FF"/>
<path d="M745.683 753.788C673.695 828.697 589.078 817.598 515.699 763.885C475.782 776.291 433.807 780.63 391.221 778.044C480.539 900.491 632.582 916.152 738.201 806.249C772.332 770.728 784.738 734.928 781.511 700.047C774.334 718.127 762.651 736.124 745.683 753.788Z" fill="#046699"/>
<path d="M373.195 156.627C352.083 239.853 410.636 337.127 526.241 388.281C588.716 415.931 653.307 454.762 702.987 499.658L733.25 529.922C780.594 582.829 804.598 641.91 781.511 700.047C777.672 658.572 751.692 618.461 713.667 581.799L685.101 556.626C635.198 516.181 572.36 481.049 512.305 454.484C397.952 403.859 346.742 265.25 371.526 156.961L373.195 156.627Z" fill="#00357F"/>
</svg>
