<svg width="1910" height="800" viewBox="0 0 1910 800" fill="none" xmlns="http://www.w3.org/2000/svg">
<path d="M905.051 792.205V534.987H844.192V498.816H905.051V454.607C905.051 441.018 907.061 429.727 911.08 420.732C915.29 411.546 921.032 404.273 928.304 398.914C935.577 393.364 943.902 389.441 953.28 387.144C962.657 384.656 972.609 383.412 983.135 383.412C996.724 383.412 1008.4 384.848 1018.16 387.718C1028.11 390.589 1036.91 393.747 1044.57 397.192V433.363C1036.91 429.535 1028.59 426.473 1019.59 424.177C1010.6 421.88 999.786 420.732 987.154 420.732C973.566 420.732 963.806 422.55 957.873 426.186C952.131 429.823 948.591 434.703 947.251 440.827C945.912 446.951 945.242 453.65 945.242 460.922V498.816H1023.33V534.987H945.242V792.205H905.051ZM844.192 792.205V756.034H1023.33V792.205H844.192Z" fill="url(#paint0_linear_274_177)"/>
<path d="M1208.9 799.095C1181.91 799.095 1158.28 793.162 1137.99 781.296C1117.7 769.239 1101.82 751.823 1090.33 729.049C1079.04 706.083 1073.4 678.332 1073.4 645.797C1073.4 613.645 1079.04 586.086 1090.33 563.12C1101.82 540.154 1117.7 522.547 1137.99 510.299C1158.28 498.05 1181.91 491.926 1208.9 491.926C1235.88 491.926 1259.52 497.955 1279.8 510.012C1300.28 521.877 1316.17 539.293 1327.46 562.259C1338.75 585.034 1344.39 612.688 1344.39 645.223C1344.39 677.375 1338.75 704.935 1327.46 727.9C1316.17 750.866 1300.28 768.473 1279.8 780.722C1259.52 792.97 1235.88 799.095 1208.9 799.095ZM1208.9 762.923C1238.56 762.923 1261.53 752.493 1277.79 731.632C1294.25 710.772 1302.48 681.969 1302.48 645.223C1302.48 608.669 1294.54 580.058 1278.65 559.388C1262.96 538.528 1239.71 528.097 1208.9 528.097C1178.27 528.097 1155.02 538.145 1139.14 558.24C1123.25 578.335 1115.31 607.521 1115.31 645.797C1115.31 682.16 1123.25 710.772 1139.14 731.632C1155.02 752.493 1178.27 762.923 1208.9 762.923Z" fill="url(#paint1_linear_274_177)"/>
<path d="M1479.44 792.205V397.192L1519.63 377.671V792.205H1479.44ZM1398.49 792.205V756.034H1600.59V792.205H1398.49ZM1407.67 413.842L1389.87 377.671H1519.63L1498.39 413.842H1407.67Z" fill="url(#paint2_linear_274_177)"/>
<path d="M1787.3 799.095C1761.47 799.095 1739.17 792.779 1720.42 780.148C1701.66 767.516 1687.21 749.718 1677.07 726.752C1667.12 703.595 1662.14 676.419 1662.14 645.223C1662.14 613.071 1667.21 585.608 1677.35 562.833C1687.5 539.867 1701.95 522.356 1720.7 510.299C1739.46 498.05 1761.66 491.926 1787.3 491.926C1807.4 491.926 1823.86 494.701 1836.68 500.251C1849.69 505.801 1860.6 512.213 1869.41 519.485V397.766L1909.6 377.671V792.205H1869.41V766.942C1860.6 775.746 1849.79 783.306 1836.97 789.621C1824.34 795.937 1807.78 799.095 1787.3 799.095ZM1791.9 762.923C1808.55 762.923 1823.57 758.904 1836.97 750.866C1850.56 742.828 1861.37 731.537 1869.41 716.992V570.584C1863.47 560.824 1854.19 551.35 1841.56 542.164C1829.12 532.786 1812.57 528.097 1791.9 528.097C1763.57 528.097 1741.85 538.241 1726.73 558.527C1711.61 578.622 1704.05 607.521 1704.05 645.223C1704.05 667.041 1707.59 686.849 1714.67 704.647C1721.95 722.446 1732.09 736.608 1745.1 747.134C1758.31 757.66 1773.91 762.923 1791.9 762.923Z" fill="url(#paint3_linear_274_177)"/>
<path d="M931.675 277.078C909.007 277.078 889.153 272.095 872.113 262.127C855.072 251.999 841.729 237.37 832.083 218.24C822.598 198.948 817.856 175.638 817.856 148.309C817.856 121.301 822.598 98.1511 832.083 78.8597C841.729 59.5684 855.072 44.7784 872.113 34.4897C889.153 24.201 909.007 19.0566 931.675 19.0566C954.342 19.0566 974.196 24.1206 991.237 34.2486C1008.44 44.2157 1021.78 58.845 1031.27 78.1363C1040.75 97.2669 1045.49 120.497 1045.49 147.826C1045.49 174.834 1040.75 197.984 1031.27 217.275C1021.78 236.566 1008.44 251.356 991.237 261.645C974.196 271.934 954.342 277.078 931.675 277.078ZM931.675 246.694C956.593 246.694 975.884 237.933 989.549 220.41C1003.37 202.887 1010.29 178.692 1010.29 147.826C1010.29 117.121 1003.62 93.0871 990.272 75.7249C977.09 58.202 957.557 49.4405 931.675 49.4405C905.953 49.4405 886.421 57.8804 873.077 74.7603C859.734 91.6402 853.063 116.156 853.063 148.309C853.063 178.853 859.734 202.887 873.077 220.41C886.421 237.933 905.953 246.694 931.675 246.694Z" fill="url(#paint4_linear_274_177)"/>
<path d="M1123.73 369.194V24.844H1157.49V47.029C1165.52 39.7948 1174.69 33.3644 1184.98 27.7377C1195.26 21.9503 1209.09 19.0566 1226.45 19.0566C1248.8 19.0566 1267.93 24.4421 1283.84 35.2131C1299.92 45.8233 1312.22 60.7741 1320.74 80.0654C1329.26 99.3568 1333.52 121.944 1333.52 147.826C1333.52 175.316 1329.02 198.707 1320.01 217.998C1311.01 237.129 1298.55 251.758 1282.64 261.886C1266.88 272.014 1248.8 277.078 1228.38 277.078C1209.41 277.078 1194.62 274.024 1184.01 267.915C1173.4 261.645 1164.56 254.411 1157.49 246.212V352.314L1123.73 369.194ZM1224.52 246.694C1247.99 246.694 1266.16 238.174 1279.02 221.133C1291.88 204.093 1298.31 179.657 1298.31 147.826C1298.31 117.925 1291.64 94.0517 1278.3 76.2072C1265.11 58.3627 1246.55 49.4405 1222.59 49.4405C1208.61 49.4405 1195.91 52.8165 1184.49 59.5684C1173.24 66.1596 1164.24 75.4838 1157.49 87.5408V208.594C1166.01 219.365 1175.57 228.448 1186.18 235.843C1196.79 243.077 1209.57 246.694 1224.52 246.694Z" fill="url(#paint5_linear_274_177)"/>
<path d="M1521.23 277.078C1497.92 277.078 1477.98 271.13 1461.43 259.234C1445.03 247.337 1432.49 231.583 1423.81 211.97C1415.13 192.357 1410.79 170.976 1410.79 147.826C1410.79 120.497 1415.37 97.2669 1424.53 78.1363C1433.69 58.845 1446.55 44.2157 1463.11 34.2486C1479.67 24.1206 1499.04 19.0566 1521.23 19.0566C1539.39 19.0566 1556.11 23.2364 1571.39 31.596C1586.66 39.9556 1598.88 52.8968 1608.04 70.4198C1617.36 87.9427 1622.03 110.53 1622.03 138.181C1622.03 140.753 1621.95 144.048 1621.78 148.067C1621.78 151.926 1621.54 156.507 1621.06 161.812H1437.79V131.429H1587.78C1587.78 109.404 1584.17 92.5244 1576.93 80.7889C1569.7 68.8926 1560.86 60.6937 1550.41 56.1924C1540.12 51.6911 1530.39 49.4405 1521.23 49.4405C1495.51 49.4405 1476.46 57.6393 1464.08 74.0369C1451.7 90.4345 1445.51 112.298 1445.51 139.627C1445.51 172.583 1452.34 198.546 1466.01 217.516C1479.67 236.325 1498.56 245.73 1522.68 245.73C1532.16 245.73 1541.89 244.283 1551.85 241.389C1561.82 238.335 1571.71 233.351 1581.51 226.438L1599.84 249.106C1589.71 256.983 1577.82 263.655 1564.15 269.12C1550.49 274.426 1536.18 277.078 1521.23 277.078Z" fill="url(#paint6_linear_274_177)"/>
<path d="M1718.1 271.291V24.844H1751.86V66.8027L1746.07 61.0153C1751.22 51.5304 1757.33 43.7334 1764.4 37.6245C1771.47 31.3549 1779.51 26.6928 1788.51 23.6383C1797.52 20.5839 1807.48 19.0566 1818.42 19.0566C1839.15 19.0566 1856.28 23.0757 1869.78 31.1137C1883.28 38.991 1893.25 51.45 1899.68 68.4907C1906.27 85.5313 1909.57 107.636 1909.57 134.805V271.291H1875.81V120.818C1875.81 94.7751 1870.02 76.3679 1858.45 65.597C1847.03 54.826 1832.72 49.4405 1815.52 49.4405C1802.98 49.4405 1791.89 51.6107 1782.25 55.9513C1772.76 60.2918 1765.28 67.6065 1759.82 77.8952C1754.51 88.0231 1751.86 102.009 1751.86 119.854V271.291H1718.1Z" fill="url(#paint7_linear_274_177)"/>
<path d="M292.974 549.986C299.747 591.874 311.711 628.621 327.463 660.075C363.206 666.947 398.573 668.001 432.686 661.58C381.918 612.417 340.306 541.985 319.562 471.552C231.421 172.289 110.672 218.366 40.2901 288.774C16.5617 312.502 6.60386 343.856 7.63226 377.617C12.9498 362.241 21.478 348.17 33.5679 336.055C103.95 265.647 239.046 216.51 292.974 549.986Z" fill="#046699"/>
<path d="M617.747 502.053C623.943 486.05 629.336 468.793 633.876 450.683Z" fill="#06A9FF"/>
<path d="M334.988 141.637C345.398 96.1372 370.706 56.5565 412.068 33.7562C670.897 -109.015 735.561 245.631 661.165 477.973L643.507 524.777C628.181 559.517 609.219 589.817 586.895 612.943C550.6 650.518 509.189 675.224 464.993 688.944C414.651 705.725 352.747 701.712 352.747 701.712C271.604 696.77 179.651 682.398 105.631 631.404C22.6322 574.216 -18.002 451.686 7.60757 377.617C8.53564 408.017 262.173 783.256 513.929 618.111C729.993 476.368 526.395 -18.391 407.754 52.6686C368.173 76.3719 345.022 107.625 336.443 141.412" fill="#06A9FF"/>
<path d="M672.377 679.839C607.463 747.387 531.161 737.379 464.993 688.944C428.999 700.131 391.149 704.044 352.747 701.712C433.288 812.126 570.39 826.248 665.63 727.145C696.406 695.115 707.593 662.833 704.684 631.379C698.212 647.683 687.677 663.911 672.377 679.839Z" fill="#046699"/>
<path d="M336.493 141.361C317.455 216.409 370.255 304.124 474.499 350.251C530.835 375.183 589.078 410.199 633.876 450.683L661.165 477.973C703.856 525.68 725.502 578.956 704.684 631.379C701.222 593.981 677.795 557.811 643.507 524.752L617.747 502.053C572.749 465.582 516.086 433.902 461.932 409.948C358.817 364.298 312.639 239.31 334.988 141.662L336.493 141.361Z" fill="#00357F"/>
<defs>
<linearGradient id="paint0_linear_274_177" x1="1545.92" y1="-500.222" x2="750.113" y2="-293.076" gradientUnits="userSpaceOnUse">
<stop stop-color="#06A9FF"/>
<stop offset="1" stop-color="#046699"/>
</linearGradient>
<linearGradient id="paint1_linear_274_177" x1="1545.92" y1="-500.222" x2="750.113" y2="-293.076" gradientUnits="userSpaceOnUse">
<stop stop-color="#06A9FF"/>
<stop offset="1" stop-color="#046699"/>
</linearGradient>
<linearGradient id="paint2_linear_274_177" x1="1545.92" y1="-500.222" x2="750.113" y2="-293.076" gradientUnits="userSpaceOnUse">
<stop stop-color="#06A9FF"/>
<stop offset="1" stop-color="#046699"/>
</linearGradient>
<linearGradient id="paint3_linear_274_177" x1="1545.92" y1="-500.222" x2="750.113" y2="-293.076" gradientUnits="userSpaceOnUse">
<stop stop-color="#06A9FF"/>
<stop offset="1" stop-color="#046699"/>
</linearGradient>
<linearGradient id="paint4_linear_274_177" x1="1548.29" y1="-222.092" x2="937.512" y2="145.428" gradientUnits="userSpaceOnUse">
<stop stop-color="#06A9FF"/>
<stop offset="1" stop-color="#046699"/>
</linearGradient>
<linearGradient id="paint5_linear_274_177" x1="1548.29" y1="-222.092" x2="937.512" y2="145.428" gradientUnits="userSpaceOnUse">
<stop stop-color="#06A9FF"/>
<stop offset="1" stop-color="#046699"/>
</linearGradient>
<linearGradient id="paint6_linear_274_177" x1="1548.29" y1="-222.092" x2="937.512" y2="145.428" gradientUnits="userSpaceOnUse">
<stop stop-color="#06A9FF"/>
<stop offset="1" stop-color="#046699"/>
</linearGradient>
<linearGradient id="paint7_linear_274_177" x1="1548.29" y1="-222.092" x2="937.512" y2="145.428" gradientUnits="userSpaceOnUse">
<stop stop-color="#06A9FF"/>
<stop offset="1" stop-color="#046699"/>
</linearGradient>
</defs>
</svg>
