<svg width="200" height="200" viewBox="-4 -2 88 70" fill="none" xmlns="http://www.w3.org/2000/svg">
<path fill-rule="evenodd" clip-rule="evenodd" d="M36.6147 49.2604C35.6123 48.3532 34.9882 47.049 34.9882 45.6126C34.9882 42.8909 37.182 40.6984 39.9054 40.6984C42.6288 40.6984 44.8227 42.8909 44.8227 45.6126C44.8227 47.0301 44.2175 48.2965 43.2719 49.2037L44.5957 50.0165L53.6738 55.5544C52.5201 57.9737 53.3901 60.9222 55.773 62.302C58.2695 63.7384 61.4468 62.8879 62.8842 60.393C64.3215 57.8981 63.4704 54.7228 60.974 53.2863C58.818 52.0388 56.1324 52.5114 54.5248 54.288L45.5035 48.7879C45.8251 48.2398 46.052 47.635 46.1844 46.9923H57.9291H69.6738C70.1087 49.4305 72.227 51.2828 74.7991 51.2828C77.6738 51.2828 80 48.958 80 46.0851C80 43.2122 77.6738 40.8874 74.7991 40.8874C72.1324 40.8874 69.9385 42.8909 69.6359 45.4803H57.9858H46.3357C46.3168 44.7431 46.1844 44.0249 45.9385 43.3823L54.4113 38.2413C56.0189 40.0368 58.7045 40.5094 60.8794 39.2619C63.3759 37.8254 64.227 34.6501 62.7896 32.1552C61.3522 29.6603 58.1749 28.8098 55.6785 30.2462C53.3144 31.6071 52.4255 34.5367 53.5792 36.956L45.2577 42.0025C44.8416 41.3977 44.331 40.8496 43.7447 40.4149L56.7376 18.1119C57.2482 18.282 57.7778 18.3576 58.3262 18.3576C61.2009 18.3576 63.5272 16.0328 63.5272 13.1599C63.5272 10.287 61.182 8 58.3073 8C55.4326 8 53.1064 10.3248 53.1064 13.1977C53.1064 14.9744 53.9953 16.5432 55.357 17.4693L42.4208 39.6777C41.8534 39.432 41.2482 39.2808 40.6241 39.2052V28.7153C43.1584 28.3751 45.1253 26.2015 45.1253 23.5742C45.1253 20.7013 42.7991 18.3765 39.9244 18.3765C37.0496 18.3765 34.7234 20.7013 34.7234 23.5742C34.7234 26.1637 36.6336 28.3183 39.1111 28.7153V39.2241C38.4492 39.2997 37.8251 39.4887 37.2388 39.7533L24.4539 17.5071C25.8345 16.581 26.7423 14.9933 26.7423 13.1977C26.7423 10.3248 24.4161 8 21.5414 8C18.6667 8 16.3404 10.3248 16.3404 13.1977C16.3404 16.0706 18.6667 18.3954 21.5414 18.3954C22.0709 18.3954 22.6005 18.3198 23.0922 18.1686L35.9149 40.5661C35.3853 40.9819 34.9125 41.4922 34.5343 42.0592L26.1749 36.9749C27.3286 34.5556 26.4397 31.626 24.0756 30.2651C21.5792 28.8287 18.4019 29.6792 16.9645 32.1741C15.5272 34.669 16.3783 37.8443 18.8747 39.2808C21.0496 40.5283 23.7352 40.0368 25.3428 38.2602L33.8723 43.4201C33.6265 44.0627 33.4941 44.762 33.4752 45.4992H10.3641C10.0615 42.8909 7.86761 40.8874 5.20095 40.8874C2.32624 40.8874 0 43.2122 0 46.0851C0 48.958 2.32624 51.2828 5.20095 51.2828C7.77305 51.2828 9.89125 49.4305 10.3262 46.9923H33.6265C33.7778 47.6728 34.0236 48.2965 34.3641 48.8635L25.3617 54.3069C23.7541 52.5114 21.0496 52.0199 18.8936 53.2674C16.3972 54.7039 15.5461 57.8792 16.9835 60.3741C18.4208 62.869 21.5981 63.7195 24.0946 62.2831C26.4586 60.9222 27.3475 57.9926 26.1939 55.5733L35.2908 50.0732L36.6147 49.2604Z" fill="#9be5d7"/>
</svg>